<svg width="53" height="8" viewBox="0 0 53 8" fill="none" xmlns="http://www.w3.org/2000/svg">
    <g clip-path="url(#clip0_5125_53177)">
        <path d="M27.986 0.0332031C25.5035 0.0332031 23.4893 1.77599 23.4893 3.92688C23.4893 6.21376 25.416 7.92316 27.986 7.92316C30.4919 7.92316 32.4705 6.19106 32.4705 3.97181C32.4705 1.76567 30.5051 0.0332031 27.986 0.0332031Z" fill="url(#paint0_linear_5125_53177)"/>
        <path d="M2.45793 0.176743H0.0405273V7.75386H2.4453C3.72123 7.75386 4.64397 7.48223 5.45346 6.87963C6.41388 6.16381 6.98342 5.08446 6.98342 3.96893C6.98342 1.73191 5.12377 0.176743 2.45793 0.176743ZM4.38042 5.86763C3.86067 6.28902 3.19144 6.47116 2.12792 6.47116H1.68612V1.45981H2.12792C3.19144 1.45981 3.835 1.63042 4.38042 2.07302C4.94924 2.52753 5.28846 3.23135 5.28846 3.95814C5.28846 4.68651 4.94924 5.41488 4.38042 5.86763ZM7.74261 7.75386H9.38561V0.176743H7.74282V7.75386H7.74261ZM13.4078 3.08325C12.4204 2.75451 12.1298 2.53767 12.1298 2.13014C12.1298 1.65256 12.6472 1.2893 13.3564 1.2893C13.8494 1.2893 14.2539 1.47098 14.6851 1.90139L15.5438 0.891813C14.8357 0.333952 13.9888 0.0503245 13.065 0.0503245C11.5745 0.0503245 10.4358 0.982417 10.4358 2.21963C10.4358 3.26577 10.9664 3.79925 12.5094 4.30046C13.1545 4.50391 13.4824 4.63963 13.6472 4.73237C13.9759 4.92558 14.141 5.1973 14.141 5.51516C14.141 6.12967 13.5968 6.58344 12.8625 6.58344C12.0785 6.58344 11.447 6.23163 11.0675 5.57274L10.0067 6.49405C10.7638 7.49246 11.6743 7.93702 12.9273 7.93702C14.6341 7.93702 15.8344 6.91312 15.8344 5.44791C15.8344 4.24335 15.2796 3.69758 13.4078 3.08325ZM16.3526 3.96902C16.3526 6.19832 18.3004 7.92484 20.8044 7.92484C21.5124 7.92484 22.1192 7.79907 22.8659 7.48214V5.74288C22.2076 6.33432 21.6258 6.57228 20.8795 6.57228C19.2236 6.57228 18.047 5.49265 18.047 3.95814C18.047 2.50456 19.2604 1.35684 20.8044 1.35684C21.5871 1.35684 22.1823 1.6066 22.8659 2.20874V0.469673C22.1453 0.141301 21.55 0.00585938 20.842 0.00585938C18.3507 0.00585938 16.3526 1.76725 16.3526 3.96902ZM36.1916 5.26651L33.9409 0.176743H32.1453L35.7248 7.94744H36.6092L40.2512 0.17665H38.4689L36.1916 5.26651ZM40.9989 7.75395H45.6638V6.47116H42.6423V4.42456H45.5482V3.14158H42.6423V1.45972H45.6638V0.176836H40.9988V7.75395H40.9989ZM52.1738 2.41293C52.1738 0.993487 51.0879 0.176743 49.1902 0.176743H46.7496V7.75386H48.395V4.70856H48.6103L50.885 7.75386H52.9081L50.2512 4.56223C51.4921 4.33414 52.1738 3.57256 52.1738 2.41293ZM48.8735 3.66428H48.395V1.36828H48.8998C49.9262 1.36828 50.4822 1.75572 50.4822 2.49312C50.4822 3.25377 49.9262 3.66428 48.8735 3.66428Z" fill="#0B1015"/>
    </g>
    <defs>
        <linearGradient id="paint0_linear_5125_53177" x1="197.851" y1="71.5398" x2="736.963" y2="705.166" gradientUnits="userSpaceOnUse">
            <stop stop-color="#F34F26"/>
            <stop offset="1" stop-color="#F69E35"/>
        </linearGradient>
        <clipPath id="clip0_5125_53177">
            <rect width="53" height="8" fill="white"/>
        </clipPath>
    </defs>
</svg>
