<svg width="68" height="62" viewBox="0 0 68 62" fill="none" xmlns="http://www.w3.org/2000/svg">
<path d="M30.6488 3.4216C30.8474 3.4216 31.0956 3.5203 31.3108 3.8164C30.3509 2.45105 32.3865 3.04325 32.5023 1.7437C33.6607 0.888299 33.247 0.328999 33.578 0.296099L33.9421 0C33.2305 0.2632 32.9822 0.31255 32.7836 0.31255H32.4527C32.2044 0.31255 31.7907 0.3619 30.8143 0.657999C28.5802 0.822499 26.9749 3.2242 26.2137 3.29C25.4359 3.70125 25.469 3.7835 25.651 3.7835C25.7007 3.7835 25.7669 3.76705 25.833 3.76705C25.8992 3.76705 25.9489 3.7506 25.9985 3.7506C26.1806 3.7506 26.1309 3.83285 25.0718 4.32635C25.32 4.39215 23.2183 5.31335 23.2018 6.76094C23.1356 7.32024 23.3672 7.69859 23.7479 7.69859C24.0789 7.69859 24.4926 7.45184 24.9394 6.82675C26.4288 5.11595 29.5731 4.95145 30.9302 3.9151C30.0862 3.8493 30.2516 3.4216 30.6488 3.4216ZM23.0859 3.99735C22.937 3.99735 23.1356 3.8164 23.3507 3.63545C23.5824 3.4545 23.8472 3.27355 23.8472 3.27355L23.8306 3.29C24.7243 2.94455 24.1781 2.8623 24.6581 2.632H24.625C24.5257 2.632 24.7077 2.5004 24.8732 2.35235C25.0387 2.22075 25.1876 2.0727 25.0387 2.0727C24.9559 2.0727 24.7408 2.12205 24.3767 2.2701C24.4926 2.1056 24.9394 1.99045 25.5683 1.645C24.6581 1.9411 23.9465 2.12205 23.8637 2.12205C23.7975 2.12205 24.1781 1.99045 25.32 1.645C25.3697 1.645 25.4193 1.66145 25.4524 1.66145C25.5683 1.66145 25.6179 1.62855 25.6014 1.59565C25.5848 1.56275 25.5186 1.5463 25.4028 1.5463C23.7644 1.6779 22.5398 2.6978 22.9039 2.8294C23.119 2.7636 23.2679 2.7307 23.3672 2.7307C23.5824 2.7307 23.4831 2.91165 23.0528 3.17485C23.2514 3.63545 19.743 4.81985 19.3458 5.24754C19.5444 5.13239 19.6768 5.0995 19.743 5.0995C20.0078 5.0995 19.6603 5.60945 19.3127 5.85619C19.5279 6.05359 19.6934 6.11939 19.8257 6.11939C20.1733 6.11939 20.3222 5.64234 20.6201 5.49429C20.6863 5.62589 20.7525 5.6917 20.8352 5.6917C21.1166 5.6917 21.4641 5.0008 21.7454 4.6389C21.8282 4.72115 21.9275 4.78695 22.0599 4.78695C22.3247 4.78695 22.7218 4.5731 23.3507 3.96445C23.2183 3.9809 23.119 3.99735 23.0859 3.99735ZM19.2796 7.02414C18.6839 7.38604 18.3694 7.53409 18.237 7.53409C17.9888 7.53409 18.3198 7.07349 18.6177 6.59644C18.9156 6.13584 19.1803 5.67525 18.7997 5.67525C18.6177 5.67525 18.2867 5.77395 17.7571 6.03715C16.3174 6.99124 13.8846 9.62324 12.809 9.62324H12.7097C14.4473 8.35659 13.9343 5.87265 16.367 5.2311C18.7666 3.86575 20.405 4.29345 22.5398 2.7307C21.9109 3.04325 20.9842 3.3887 20.769 3.3887C20.6367 3.3887 20.8352 3.2242 21.6958 2.81295C21.613 2.8294 21.5468 2.84585 21.4972 2.84585C20.918 2.84585 25.3035 1.2831 25.5186 1.2502C23.7148 1.49695 20.8021 2.9939 20.405 2.9939C20.3553 2.9939 20.3553 2.97745 20.3553 2.94455C20.4215 2.8952 20.4215 2.8623 20.3553 2.8623C20.1402 2.8623 19.2465 3.1584 18.3363 3.4545C17.4427 3.7506 16.5325 4.06315 16.3339 4.06315C16.2677 4.06315 16.2677 4.03025 16.367 3.96445C8.55585 8.37304 2.03553 15.8084 0 24.6256C0.844001 26.5503 0.264785 30.2186 1.6549 31.2879C3.24361 32.6203 0.297883 36.4861 1.07569 38.8713C1.87004 43.1812 5.29569 46.1258 5.65977 50.5344C6.28864 53.5612 8.58895 57.2624 9.5488 59.187C10.277 59.9108 12.2794 62 12.6269 62C12.7593 62 12.6766 61.6875 12.147 60.8485C11.816 59.9109 9.89633 57.4598 10.8231 57.4598C10.8727 57.4598 10.9224 57.4598 10.9886 57.4763C9.84668 56.3248 13.5206 56.6373 10.9555 55.0746C10.6576 54.7127 10.5914 54.5975 10.6576 54.5975C10.7403 54.5975 10.972 54.7291 11.2368 54.8607C11.5181 54.9923 11.8491 55.1239 12.1139 55.1239C12.5276 55.1239 12.809 54.8443 12.6435 53.8244C12.7097 53.8573 12.7759 53.8573 12.8255 53.8573C13.2558 53.8573 13.1068 53.0183 13.1399 52.1794C13.173 51.3404 13.3882 50.5015 14.5466 50.5015C14.679 50.5015 14.8279 50.5179 14.9769 50.5344C17.6578 49.0868 15.3244 45.0894 18.4025 43.6254C18.2867 40.3025 13.8019 40.138 12.1139 38.7891C11.8326 38.9536 11.5678 39.0029 11.303 39.0029C11.0051 39.0029 10.7403 38.9371 10.5086 38.8549C10.277 38.7891 10.0618 38.7068 9.91288 38.7068C9.87978 38.7068 9.84668 38.7068 9.81358 38.7233C12.6931 37.9666 10.5914 33.9857 8.20832 33.9857H8.04283C7.86079 32.2584 6.96715 32.9164 6.86785 31.4853C6.71891 31.5675 6.56997 31.6004 6.42103 31.6004C6.02385 31.6004 5.65977 31.3208 5.34534 31.0576C5.03091 30.7779 4.76612 30.5147 4.53444 30.5147C4.3524 30.5147 4.18691 30.6957 4.03797 31.2221C4.20346 30.416 4.15381 30.1528 3.98832 30.1528C3.82283 30.1528 3.52495 30.4325 3.19396 30.7121C2.87953 30.9918 2.51545 31.2714 2.23412 31.2714H2.15138C0.215138 29.9061 2.16792 27.4879 1.14188 25.6291C1.80385 24.9217 2.06863 23.7209 1.77075 23.7209C1.62181 23.7209 1.32392 24.017 0.86055 24.823C0.198588 23.1451 1.95279 19.3452 3.4422 19.1313C3.49185 19.1313 3.52494 19.1149 3.57459 19.1149C3.83938 19.1149 4.10416 19.2465 4.33585 19.5261C4.46824 20.2993 4.13726 21.9278 4.26965 21.9278C4.33585 21.9278 4.46824 21.5988 4.79922 20.7434C5.2295 18.7859 8.24142 17.3712 8.55585 16.1703C8.5724 16.1868 8.5724 16.1868 8.58895 16.1868C8.93648 16.1868 11.1706 14.2292 12.147 14.0154C12.5276 13.637 12.7924 13.5054 12.991 13.5054C13.2061 13.5054 13.322 13.6699 13.4047 13.818C13.4875 13.9825 13.5537 14.1305 13.6364 14.1305C13.7026 14.1305 13.7853 14.0318 13.9343 13.7522C13.4213 12.7487 14.7452 11.7946 14.3811 11.7946C14.2487 11.7946 13.8515 11.9262 13.0406 12.2552C12.9082 12.321 12.8421 12.3375 12.809 12.3375C12.7097 12.3375 13.1068 12.0743 13.6861 11.8111C14.2653 11.5479 14.9934 11.2847 15.6057 11.2847C15.9036 11.2847 16.1684 11.3505 16.367 11.515C18.9321 10.9063 17.5254 10.0674 17.6578 10.0674H17.6909C18.4191 9.63969 18.2039 8.02759 19.2796 7.02414ZM7.81115 13.7522C7.77805 13.7522 7.92699 13.5383 8.42346 12.9297C9.4495 12.173 10.277 11.663 9.33366 11.1695C9.74738 10.9886 10.1446 10.7747 10.5252 10.5444C10.5086 11.3505 9.83013 13.308 9.46605 13.308C9.38331 13.308 9.30056 13.1929 9.26746 12.9461C9.4826 12.5678 9.49915 12.4197 9.4164 12.4197C9.28401 12.4197 8.90338 12.7487 8.5393 13.0942C8.17522 13.4067 7.84424 13.7522 7.81115 13.7522ZM8.75444 14.1963C8.30762 14.1963 8.39036 13.9167 9.76393 13.637C10.3597 13.5548 9.89633 13.5877 10.6079 13.4232C9.91288 13.9825 9.13507 14.1963 8.75444 14.1963ZM34.4882 12.5349C34.6868 12.502 34.8357 12.502 34.9516 12.502C35.4315 12.502 35.2164 12.6994 34.935 12.8968C34.6537 13.0942 34.3062 13.2916 34.5047 13.2916C34.6206 13.2916 34.935 13.2258 35.5804 13.0448C38.8406 12.8145 34.3062 10.0674 35.0343 9.14619L34.8357 9.08039C33.4953 10.7747 35.7294 10.8076 34.4882 12.5349ZM33.1312 12.6007C33.3629 12.6007 33.6607 12.3375 33.9752 11.5972C34.4055 11.0873 34.2234 11.0215 33.76 10.7747C32.4858 11.1037 32.6016 12.6007 33.1312 12.6007ZM44.55 17.8153C44.5004 17.8153 44.4673 17.8318 44.4342 17.8482C44.5666 17.8811 44.699 17.914 44.8313 17.914C44.699 17.8482 44.6162 17.8153 44.55 17.8153ZM66.7754 21.9114C67.0567 22.52 67.2057 22.7668 67.2222 22.7668C67.338 22.7668 65.137 17.437 64.2268 16.4829C59.4772 8.71849 51.6661 2.78005 42.7627 0.559299H42.7462C42.5145 0.559299 42.7793 0.674449 43.0937 0.789599C43.4081 0.904749 43.7888 1.0199 43.7888 1.0199C43.7888 1.0199 43.5405 0.937649 42.7793 0.723799C41.9353 0.477049 41.0747 0.2961 40.1976 0.2303C40.0487 0.27965 43.8219 1.76015 46.3539 2.5333C45.5099 2.2701 44.6328 2.0398 44.4176 2.0398C44.2687 2.0398 44.4176 2.1385 45.0299 2.4017C44.2852 2.18785 43.9708 2.08915 43.9377 2.08915C43.8881 2.08915 44.9306 2.4346 45.907 2.78005C46.9 3.1255 47.8433 3.47095 47.5785 3.47095C47.5123 3.47095 47.3302 3.43805 47.0489 3.3887C47.8929 3.8493 48.1908 4.03025 48.1412 4.03025C48.0584 4.03025 47.0158 3.53675 45.9401 3.04325C44.881 2.54975 43.8053 2.05625 43.6564 2.05625C43.5736 2.05625 43.7888 2.22075 44.5169 2.64845C45.5099 3.07615 46.5028 3.50385 46.2215 3.50385C46.0891 3.50385 45.7084 3.4216 44.9637 3.20775C46.6186 4.0467 43.7888 3.7177 44.7486 4.85275C44.219 4.35925 44.0039 4.19475 43.9543 4.19475C43.9046 4.19475 44.037 4.39215 44.1694 4.58955C44.3018 4.78695 44.4011 4.98435 44.2852 4.98435H44.2521C45.4106 6.23454 43.4412 5.11594 44.8479 6.23454C43.7888 5.75749 41.9849 4.9679 42.7958 4.9679C42.9944 4.9679 43.375 5.01725 43.9708 5.14885C42.8951 3.89865 39.8501 3.8493 39.7839 3.70125C39.0226 3.7506 39.0061 4.32635 39.1385 5.37915C39.1219 7.04059 37.4836 7.07349 37.6987 8.02759C37.6987 8.01114 37.7153 8.01114 37.7153 8.01114C37.7484 8.01114 37.7649 8.34014 37.8642 8.68559C37.98 9.01459 38.1786 9.36004 38.6089 9.36004C38.8406 9.36004 39.1385 9.26134 39.5026 9.01459C40.0156 9.93579 40.479 10.2648 40.843 10.2648C41.3891 10.2648 41.7201 9.52454 41.687 8.85009C41.0913 8.52109 40.3135 5.7904 41.174 5.7904C41.3064 5.7904 41.4719 5.8562 41.687 6.00425C40.3466 9.27779 46.9827 7.08994 43.2261 8.58689C44.0701 9.68904 42.6965 9.63969 43.0937 10.9721C42.4483 11.1531 41.7367 11.3176 41.1078 11.3176C40.1811 11.3176 39.4695 10.9228 39.5522 9.54099C38.3938 10.1496 40.7106 12.2059 38.4103 12.2059H38.2779C37.1691 14.2292 33.0153 13.5383 36.2755 15.6768C36.4575 16.6145 35.8618 16.779 35.1005 16.779C34.9019 16.779 34.6868 16.7625 34.4716 16.7461C34.2565 16.7296 34.0414 16.7296 33.8428 16.7296C32.9822 16.7296 32.3699 16.9435 32.8995 18.2759C32.5189 19.6577 33.4125 20.2664 34.5047 20.2664C35.8287 20.2664 37.4505 19.411 37.5663 17.9963C38.2779 16.927 39.1881 16.4829 40.1314 16.4829C41.6208 16.4829 43.193 17.6015 44.219 18.9833C44.3018 19.1149 44.368 19.1642 44.4011 19.1642C44.4838 19.1642 44.4011 18.8352 44.368 18.5062C44.3349 18.243 44.3349 17.9798 44.4342 17.8976C42.9613 17.4863 41.836 15.7097 42.3324 15.7097C42.4979 15.7097 42.8455 15.9071 43.4081 16.4335H43.4909C44.4176 16.4335 45.1458 17.1573 45.7084 17.8811C46.2877 18.6049 46.7179 19.3287 47.0986 19.3287C47.2475 19.3287 47.3964 19.1971 47.5288 18.901C47.4626 18.8023 47.2972 18.5227 47.2144 18.243C47.1151 17.8976 47.1151 17.5521 47.5619 17.5521C47.744 17.5521 47.9922 17.6179 48.3397 17.7495C49.4651 17.4534 47.6281 14.5418 49.1175 14.5418C49.2665 14.5418 49.4485 14.5747 49.6802 14.6405C49.6637 15.1504 49.8954 15.3314 50.1105 15.3314C50.5408 15.3314 50.971 14.7227 49.9284 14.5418C50.3256 14.1634 50.5573 14.0154 50.7228 14.0154C51.302 14.0154 50.8386 15.9236 52.8411 15.9236C53.5196 17.5192 46.9496 16.0387 49.0513 19.0984C49.5313 19.4439 50.127 19.5097 50.7063 19.5097C50.8883 19.5097 51.0538 19.5097 51.2193 19.4932C51.3848 19.4932 51.5503 19.4768 51.6992 19.4768C52.7252 19.4768 53.4534 19.7235 53.0066 21.8291C52.4605 22.2239 51.8481 22.3555 51.2193 22.3555C50.6566 22.3555 50.0939 22.2568 49.5478 22.1581C49.0017 22.0594 48.4721 21.9607 47.9922 21.9607C47.2475 21.9607 46.6517 22.2075 46.2877 23.0629C44.3514 22.2733 41.8029 22.2404 42.0511 19.8551C38.6751 20.3322 35.1502 20.0854 32.6678 22.1417C32.5189 25.152 27.3225 26.1226 28.5802 29.5442C27.0742 32.7026 30.4006 37.1276 33.7931 37.1276C33.909 37.1276 34.0414 37.1276 34.1572 37.1112C36.0107 37.0947 37.8808 36.2722 39.5191 36.2722C40.3631 36.2722 41.1244 36.4861 41.7863 37.1441C41.9353 37.1276 42.0677 37.1112 42.1835 37.1112C44.7155 37.1112 41.3726 41.1085 44.4011 41.783C47.1482 44.6124 42.7131 47.524 44.881 50.2383C45.1127 52.3603 46.1718 54.1369 46.1718 56.2096C46.4532 56.2425 46.7179 56.2589 46.9993 56.2589C50.4911 56.2589 52.6756 53.2322 54.7277 50.9456C54.0988 47.524 59.6096 46.8496 57.723 43.0167C56.8459 38.822 61.8769 36.338 61.5955 32.1433C61.6452 31.5511 61.4797 31.3701 61.2314 31.3701C60.9832 31.3701 60.6191 31.5511 60.2716 31.7156C59.9075 31.8965 59.5103 32.061 59.1959 32.061C58.7822 32.061 58.4678 31.7814 58.4347 30.8602C56.0019 28.6065 54.8932 25.5468 52.6259 23.0629C55.5717 24.4776 57.2431 27.6689 58.6001 30.5641C58.716 30.597 58.8318 30.6134 58.9642 30.6134C61.3638 30.6134 64.7067 24.9053 61.066 23.5235C60.8674 24.0663 60.6026 24.2637 60.2881 24.2637C59.742 24.2637 59.1132 23.6057 58.6663 22.9642C58.2195 22.3062 57.9878 21.6482 58.2361 21.6482C58.4016 21.6482 58.7656 21.9114 59.3945 22.6023C60.1061 23.0464 60.8012 23.1616 61.5293 23.1616C62.2409 23.1616 62.9691 23.0464 63.7303 22.9806C64.6902 23.359 65.1039 24.5763 65.4018 24.5763C65.4514 24.5763 65.5176 24.5269 65.5673 24.4118C66.3286 26.2213 67.2056 29.4455 68 30.3173C67.5863 27.5537 67.487 24.6256 66.7754 21.9114ZM57.541 18.1114C55.671 17.6344 55.0587 15.3314 53.5858 13.9989C53.5692 13.637 54.1154 13.7028 53.983 13.0942C55.9688 13.7028 55.3234 14.3115 55.1414 14.4266C55.8696 15.6275 57.9051 16.45 57.541 18.1114ZM31.8404 5.593C30.0365 6.1194 29.7883 5.54364 30.1027 6.64579C30.2351 6.74449 30.4833 6.77739 30.7316 6.77739C31.6087 6.79384 32.8002 6.2839 31.8404 5.593ZM58.3354 50.9127C60.7019 48.9223 60.9998 46.5535 61.1156 44.1518C60.0565 46.208 56.9121 48.4781 58.3354 50.9127ZM47.5619 18.8352C47.5454 18.8517 47.5454 18.8517 47.5454 18.8681C47.5619 18.901 47.5785 18.901 47.5785 18.901C47.5785 18.901 47.5785 18.8846 47.5619 18.8352Z" fill="black" fill-opacity="0.1"/>
</svg>
